<?xml version="1.0" standalone="no"?>
<!DOCTYPE svg PUBLIC "-//W3C//DTD SVG 20010904//EN"
 "http://www.w3.org/TR/2001/REC-SVG-20010904/DTD/svg10.dtd">
<svg version="1.0" xmlns="http://www.w3.org/2000/svg"
 width="225.000000pt" height="225.000000pt" viewBox="0 0 225.000000 225.000000"
 preserveAspectRatio="xMidYMid meet">

<g transform="translate(0.000000,225.000000) scale(0.100000,-0.100000)"
fill="#000000" stroke="none">
<path d="M1290 1955 c-101 -23 -206 -79 -276 -149 l-61 -61 -66 9 c-56 8 -82
6 -154 -12 -105 -26 -178 -68 -249 -145 -79 -85 -134 -217 -134 -320 0 -31 -4
-34 -67 -62 -48 -21 -86 -48 -134 -95 -158 -156 -193 -384 -88 -581 38 -71
136 -167 207 -203 111 -56 123 -57 851 -54 614 3 670 5 721 22 105 35 173 77
245 150 84 85 130 172 153 288 40 202 -46 423 -211 545 l-59 43 -3 87 c-10
249 -168 457 -402 528 -73 23 -198 27 -273 10z m216 -139 c209 -55 352 -269
317 -469 -6 -34 -14 -70 -18 -79 -5 -13 -1 -20 11 -24 97 -33 193 -111 238
-194 121 -221 38 -474 -191 -587 l-77 -38 -690 0 -691 0 -57 27 c-73 34 -142
103 -176 176 -36 77 -39 212 -5 284 28 62 106 144 163 173 51 26 164 50 182
39 8 -5 9 -2 5 11 -69 177 8 366 183 449 56 26 76 31 145 30 59 0 92 -5 126
-21 l46 -21 17 35 c22 47 101 129 154 160 99 58 216 76 318 49z"/>
<path d="M988 1195 l-3 -210 -140 -3 -139 -3 204 -204 c113 -113 209 -205 215
-205 6 0 102 92 215 205 l204 204 -139 3 -140 3 -5 210 -5 210 -132 0 -133 0
-2 -210z"/>
</g>
</svg>
