<?xml version="1.0" standalone="no"?>
<!DOCTYPE svg PUBLIC "-//W3C//DTD SVG 20010904//EN"
 "http://www.w3.org/TR/2001/REC-SVG-20010904/DTD/svg10.dtd">
<svg version="1.0" xmlns="http://www.w3.org/2000/svg"
 width="225.000000pt" height="225.000000pt" viewBox="0 0 225.000000 225.000000"
 preserveAspectRatio="xMidYMid meet">

<g transform="translate(0.000000,225.000000) scale(0.100000,-0.100000)"
fill="#000000" stroke="none">
<path d="M943 2145 c-689 -125 -1058 -881 -734 -1502 264 -505 890 -699 1398
-434 505 264 699 890 434 1398 -180 344 -535 556 -926 552 -55 0 -132 -7 -172
-14z m299 -55 c375 -43 696 -311 812 -679 128 -407 -37 -864 -396 -1099 -543
-354 -1267 -93 -1462 527 -108 342 -15 714 243 972 150 149 330 242 531 274
106 16 162 17 272 5z"/>
<path d="M1102 1668 c-9 -9 -12 -94 -12 -322 l0 -311 -88 88 c-87 87 -123 105
-136 71 -5 -12 29 -53 121 -145 70 -71 132 -129 138 -129 6 0 68 58 138 129
92 92 126 133 121 145 -13 34 -49 16 -136 -71 l-88 -88 0 311 c0 311 -2 334
-35 334 -6 0 -16 -5 -23 -12z"/>
<path d="M586 1509 l-26 -20 0 -375 c0 -361 1 -375 20 -394 19 -19 33 -20 545
-20 512 0 526 1 545 20 19 19 20 33 20 394 l0 375 -26 20 c-24 19 -40 21 -150
21 -67 0 -129 -3 -138 -6 -21 -8 -21 -50 0 -58 9 -3 64 -6 123 -6 70 0 111 -4
119 -12 16 -16 17 -640 2 -669 -10 -18 -26 -19 -495 -19 -469 0 -485 1 -495
19 -15 29 -14 653 2 669 8 8 50 12 123 12 114 0 135 6 135 41 0 25 -20 29
-154 29 -110 0 -126 -2 -150 -21z"/>
</g>
</svg>
