<?xml version="1.0" encoding="UTF-8"?>
<svg version="1.1" xmlns="http://www.w3.org/2000/svg" width="512" height="512">
<path d="M0 0 C10.01816108 7.66250365 18.24270929 17.04731384 21.95703125 29.26171875 C22.53710938 29.05675781 23.1171875 28.85179687 23.71484375 28.640625 C24.49601562 28.37121094 25.2771875 28.10179687 26.08203125 27.82421875 C26.84773438 27.55738281 27.6134375 27.29054687 28.40234375 27.015625 C46.70747734 21.61365133 66.26014405 25.61835687 82.734375 34.34765625 C100.0005342 44.60270838 110.45388612 60.08331731 115.484375 79.26904297 C116.65693064 84.21243093 117.37845325 89.21859108 117.95703125 94.26171875 C119.19453125 94.44734375 119.19453125 94.44734375 120.45703125 94.63671875 C138.44496754 97.84885023 152.90724543 106.51020788 163.89453125 121.19921875 C173.72287896 136.25337085 177.05211897 154.02089024 173.41162109 171.53417969 C169.58125337 188.08756865 160.22789151 201.91184479 145.95703125 211.26171875 C132.77866027 218.74075636 120.97126205 220.56494439 105.984375 220.45703125 C104.45024298 220.4532944 102.91610854 220.45045061 101.38197327 220.44845581 C97.37233727 220.44087217 93.3628495 220.4212699 89.35327148 220.39904785 C85.25050867 220.37847497 81.14772157 220.36942978 77.04492188 220.359375 C69.01555749 220.33801825 60.98631288 220.30394713 52.95703125 220.26171875 C52.96813431 221.42603424 52.97923737 222.59034973 52.99067688 223.78994751 C53.09206582 234.76623598 53.16700306 245.74242935 53.21609211 256.71907997 C53.24217791 262.36223503 53.27755817 268.00501185 53.33422852 273.64794922 C53.3885834 279.09445281 53.41845944 284.54059275 53.43141747 289.98734665 C53.44065101 292.06459655 53.45868217 294.14182671 53.48568153 296.21892166 C53.52201757 299.13027085 53.52697463 302.04012044 53.5246582 304.95166016 C53.54263458 305.80905792 53.56061096 306.66645569 53.57913208 307.54983521 C53.5428831 311.76459582 53.24367145 314.44070947 50.54655457 317.78109741 C46.71022344 321.45609226 44.86322511 321.3889764 39.63798523 321.40216064 C38.6545358 321.40661733 38.6545358 321.40661733 37.65121871 321.41116405 C35.4441428 321.41986761 33.23712103 321.42136069 31.0300293 321.42285156 C29.45165897 321.42747859 27.87328977 321.43250309 26.29492188 321.43789673 C21.99938747 321.45103442 17.7038687 321.45746843 13.40831733 321.46190739 C10.72576483 321.46483609 8.04321662 321.46894053 5.36066628 321.47341156 C-3.02907298 321.4870905 -11.41880245 321.49675504 -19.80855209 321.50061345 C-29.49936034 321.50509442 -39.19002755 321.52264242 -48.88079292 321.55161405 C-56.36705195 321.57321948 -63.85327128 321.58331713 -71.33956116 321.58465457 C-75.812731 321.58570348 -80.28576834 321.59162935 -84.75890541 321.60947418 C-88.96713574 321.62593509 -93.17513369 321.62812007 -97.3833847 321.61933517 C-98.92773498 321.61856372 -100.47209764 321.62292186 -102.01641655 321.63279343 C-104.12554576 321.64548432 -106.23384842 321.63965252 -108.3429718 321.62921143 C-109.52303456 321.63067799 -110.70309732 321.63214455 -111.91891956 321.63365555 C-116.34900447 321.10622736 -118.9746502 319.52521027 -121.83418274 316.14326477 C-123.53210149 312.09570716 -123.43859563 308.50375221 -123.38354492 304.15698242 C-123.383983 303.24917023 -123.38442108 302.34135803 -123.38487244 301.40603638 C-123.38278704 298.41369921 -123.35946754 295.42192646 -123.3359375 292.4296875 C-123.33034067 290.35175381 -123.32607098 288.27381615 -123.32307434 286.19587708 C-123.3116325 280.7328494 -123.28217081 275.27006186 -123.2489624 269.80712891 C-123.2182474 264.23017627 -123.20456593 258.65318475 -123.18945312 253.07617188 C-123.15730064 242.13791546 -123.1061121 231.19983709 -123.04296875 220.26171875 C-124.03474121 220.27282181 -125.02651367 220.28392487 -126.04833984 220.29536438 C-135.46158494 220.39736549 -144.8747158 220.47198087 -154.28839111 220.52077961 C-159.12641697 220.54671233 -163.96399156 220.58180621 -168.80175781 220.63891602 C-173.4832188 220.6938256 -178.16424977 220.72326151 -182.8460083 220.73610497 C-184.61914832 220.74524038 -186.3922687 220.76307479 -188.16522217 220.79036903 C-208.04744747 221.08387145 -224.08722702 216.27167362 -238.984375 202.41015625 C-252.63013755 188.16884808 -256.78272517 171.19740055 -256.41796875 152.12109375 C-255.85889122 139.76548033 -251.56986555 129.09401396 -244.04296875 119.26171875 C-243.39714844 118.4109375 -242.75132812 117.56015625 -242.0859375 116.68359375 C-232.80016002 105.45107628 -220.17461249 98.42504508 -206.04296875 95.26171875 C-203.71073589 95.19006442 -201.37447551 95.16941133 -199.04296875 95.26171875 C-199.02878906 94.43671875 -199.01460937 93.61171875 -199 92.76171875 C-198.18327353 72.98369399 -190.59261563 56.00979911 -176.04296875 42.26171875 C-160.29390855 29.23696056 -141.55360826 23.69688947 -121.36035156 25.0078125 C-115.39976536 25.66088979 -109.71505232 27.36254577 -104.04296875 29.26171875 C-103.78644531 28.39160156 -103.52992188 27.52148438 -103.265625 26.625 C-97.41371778 10.5275811 -83.56292304 -0.17006592 -68.73046875 -7.48828125 C-45.99328644 -17.24659037 -20.13326407 -13.9821513 0 0 Z M-85.04296875 18.26171875 C-89.9262944 24.09308931 -97.04296875 33.34239603 -97.04296875 41.26171875 C-102.84913052 41.77782202 -107.09654939 40.36362964 -112.4921875 38.234375 C-123.41656935 34.0687225 -138.34781133 34.88642708 -149.04296875 39.26171875 C-150.14898437 39.71417969 -151.255 40.16664063 -152.39453125 40.6328125 C-167.35483075 47.4285041 -177.87127811 58.13118658 -184.35546875 73.38671875 C-188.07082147 83.5642448 -188.57453725 93.52477571 -189.04296875 104.26171875 C-190.07035156 104.3596875 -191.09773438 104.45765625 -192.15625 104.55859375 C-209.23627176 106.33647062 -223.79226428 111.61058569 -235.04296875 125.26171875 C-243.62111787 137.75416892 -247.94951767 151.03072274 -245.58203125 166.21875 C-242.24050581 181.21630243 -234.47773946 193.51149547 -221.66796875 202.19921875 C-211.93028892 207.95895278 -201.71827853 210.39416877 -190.47705078 210.37524414 C-189.74465683 210.37539017 -189.01226288 210.37553619 -188.25767517 210.37568665 C-185.85534626 210.37499425 -183.45309649 210.36723357 -181.05078125 210.359375 C-179.37783857 210.35750843 -177.70489533 210.35608565 -176.0319519 210.35508728 C-171.6425626 210.35128094 -167.25320672 210.34146683 -162.86383057 210.3303833 C-158.37927706 210.3201286 -153.89471812 210.31558098 -149.41015625 210.31054688 C-140.62107846 210.29984278 -131.83202777 210.2827891 -123.04296875 210.26171875 C-123.03416939 208.53070671 -123.03416939 208.53070671 -123.02519226 206.76472473 C-122.96798695 195.89091388 -122.89523667 185.01730344 -122.80725384 174.14369678 C-122.76252052 168.55341342 -122.72327079 162.96320343 -122.6965332 157.37280273 C-122.67052998 151.97806026 -122.63014839 146.58359972 -122.57978249 141.1890316 C-122.56309365 139.13058668 -122.55159195 137.07209298 -122.54535484 135.01358986 C-122.53573582 132.13091072 -122.5077025 129.24895616 -122.4753418 126.36645508 C-122.47749443 125.08899162 -122.47749443 125.08899162 -122.47969055 123.78572083 C-122.40625039 119.16199923 -122.13654039 115.95314474 -119.04296875 112.26171875 C-115.98103186 110.36870214 -113.63227246 110.00383733 -110.06011963 109.97410583 C-109.05648376 109.96124039 -108.0528479 109.94837494 -107.01879883 109.93511963 C-105.92365967 109.93131287 -104.82852051 109.9275061 -103.70019531 109.92358398 C-101.96295197 109.90627983 -101.96295197 109.90627983 -100.19061279 109.8886261 C-96.35492616 109.8542849 -92.51940046 109.83581026 -88.68359375 109.8203125 C-86.71821278 109.80995814 -86.71821278 109.80995814 -84.71312714 109.79939461 C-78.49384608 109.76668632 -72.2746153 109.74278358 -66.05525994 109.73058075 C-58.88955802 109.71633579 -51.72484268 109.67249242 -44.55946755 109.60307926 C-39.01194805 109.55120254 -33.46470824 109.52640021 -27.91694999 109.52175862 C-24.60750973 109.51836889 -21.29929216 109.50019891 -17.9900589 109.46047783 C-14.29369947 109.41903673 -10.59983242 109.4218679 -6.90332031 109.43530273 C-5.81627808 109.41327789 -4.72923584 109.39125305 -3.60925293 109.36856079 C3.10169573 109.45130061 6.57575718 110.66155443 11.32011986 115.46813107 C11.86030062 116.060015 12.40048138 116.65189894 12.95703125 117.26171875 C13.74834946 118.01113235 14.53966766 118.76054596 15.35496521 119.53266907 C16.33639244 120.51290291 16.33639244 120.51290291 17.33764648 121.51293945 C18.09460312 122.26674393 18.85155975 123.0205484 19.63145447 123.79719543 C20.41823074 124.58599594 21.20500702 125.37479645 22.015625 126.1875 C22.84538345 127.01630173 23.67514191 127.84510345 24.53004456 128.69902039 C26.26824698 130.4365467 28.00520487 132.17531886 29.7409668 133.9152832 C32.40755307 136.58726693 35.07948813 139.25381931 37.75195312 141.91992188 C39.44433151 143.61296034 41.13640006 145.3063086 42.828125 147 C43.62907089 147.79892166 44.43001678 148.59784332 45.25523376 149.42097473 C45.99012527 150.1590184 46.72501678 150.89706207 47.48217773 151.6574707 C48.1308934 152.30698196 48.77960907 152.95649323 49.44798279 153.62568665 C52.09932977 156.50013958 52.09910624 158.54109647 52.16235352 162.35400391 C52.18229874 163.4149527 52.20224396 164.47590149 52.22279358 165.56900024 C52.23950607 166.71798798 52.25621857 167.86697571 52.2734375 169.05078125 C52.2942186 170.22434174 52.31499969 171.39790222 52.33641052 172.60702515 C52.40195108 176.36686179 52.46081201 180.12676997 52.51953125 183.88671875 C52.56271217 186.43099707 52.60632632 188.97526808 52.65039062 191.51953125 C52.75763707 197.76685082 52.85939505 204.01424201 52.95703125 210.26171875 C60.70317095 210.30836185 68.44927684 210.34374856 76.19552231 210.36534309 C79.7936479 210.37571506 83.39167637 210.38975146 86.98974609 210.41259766 C90.47164087 210.43456411 93.95344311 210.44633668 97.43540192 210.45147324 C99.3893184 210.45688693 101.34319842 210.4724603 103.29705811 210.48831177 C121.55174326 210.49057142 135.61735186 206.77883073 149.21875 194.1640625 C158.57741998 184.34191553 163.86085301 171.37059317 164.33203125 157.82421875 C163.75623872 141.77112308 157.46692173 128.57123594 145.76953125 117.63671875 C135.73947918 109.166897 123.97098276 105.10006766 110.84765625 104.53515625 C108.95703125 104.26171875 108.95703125 104.26171875 106.95703125 102.26171875 C106.75091288 100.03858487 106.64266654 97.80606381 106.58203125 95.57421875 C105.73862172 78.04319743 99.59602543 63.54379782 86.95703125 51.26171875 C75.55431236 40.99927175 61.37043106 35.26171875 45.95703125 35.26171875 C37.91243086 35.85012381 30.7893821 37.45948872 23.3125 40.44140625 C20.44868065 41.43875627 17.96545501 41.58695375 14.95703125 41.26171875 C14.58578125 40.00359375 14.21453125 38.74546875 13.83203125 37.44921875 C8.99470441 23.31273848 -0.25241703 11.67124546 -13.4609375 4.4375 C-39.31231739 -7.33445968 -65.64033867 -2.32194098 -85.04296875 18.26171875 Z M-112.04296875 120.26171875 C-112.04296875 182.96171875 -112.04296875 245.66171875 -112.04296875 310.26171875 C-61.22296875 310.26171875 -10.40296875 310.26171875 41.95703125 310.26171875 C41.95703125 262.41171875 41.95703125 214.56171875 41.95703125 165.26171875 C22.15703125 164.76671875 22.15703125 164.76671875 1.95703125 164.26171875 C0.47203125 163.76671875 0.47203125 163.76671875 -1.04296875 163.26171875 C-1.37296875 149.07171875 -1.70296875 134.88171875 -2.04296875 120.26171875 C-38.34296875 120.26171875 -74.64296875 120.26171875 -112.04296875 120.26171875 Z M7.95703125 128.26171875 C7.95703125 136.84171875 7.95703125 145.42171875 7.95703125 154.26171875 C16.53703125 154.26171875 25.11703125 154.26171875 33.95703125 154.26171875 C30.41869871 150.13366412 27.05831038 146.2358507 23.25 142.421875 C22.41662109 141.58720703 21.58324219 140.75253906 20.72460938 139.89257812 C19.87318359 139.04501953 19.02175781 138.19746094 18.14453125 137.32421875 C17.27376953 136.44958984 16.40300781 135.57496094 15.50585938 134.67382812 C14.67892578 133.84818359 13.85199219 133.02253906 13 132.171875 C11.8711438 131.04471069 11.8711438 131.04471069 10.71948242 129.89477539 C9.23523272 128.14844086 9.23523272 128.14844086 7.95703125 128.26171875 Z " fill="#77909C" transform="translate(297.04296875,101.73828125)"/>
<path d="M0 0 C3.92635134 0.81490311 4.29450883 1.53154385 6.609375 4.6484375 C7.22127686 5.46771729 7.83317871 6.28699707 8.46362305 7.13110352 C11.91953901 11.90951314 15.30517923 16.73102617 18.66040039 21.58056641 C21.84160122 26.17054271 25.05675682 30.72470203 28.3671875 35.22265625 C29.3425647 36.56493286 29.3425647 36.56493286 30.33764648 37.93432617 C31.58907563 39.65418251 32.85377477 41.3644801 34.13305664 43.0637207 C38.27973935 48.81189724 38.27973935 48.81189724 38.44140625 53.1328125 C37.3125 55.6875 37.3125 55.6875 35.72631836 56.83935547 C32.34781005 58.02646358 29.09332542 57.89926887 25.5625 57.8125 C24.86511719 57.80347656 24.16773438 57.79445313 23.44921875 57.78515625 C21.73683042 57.76169888 20.02461996 57.72583104 18.3125 57.6875 C18.31694122 58.47232758 18.32138245 59.25715515 18.32595825 60.06576538 C18.36598917 67.45263958 18.39646099 74.83946138 18.41612434 82.22641563 C18.42657321 86.02436312 18.44075236 89.82222118 18.46337891 93.62011719 C18.48506821 97.28351346 18.49706031 100.94682357 18.50225449 104.61027908 C18.50595731 106.00976544 18.51318777 107.40924695 18.52396011 108.80869675 C18.53842225 110.76483331 18.53931647 112.72105609 18.53955078 114.67724609 C18.543992 115.7919931 18.54843323 116.90674011 18.55300903 118.05526733 C18.3125 120.6875 18.3125 120.6875 16.3125 122.6875 C13.1796875 122.94628906 13.1796875 122.94628906 9.1875 122.953125 C8.4847998 122.95503845 7.78209961 122.9569519 7.05810547 122.95892334 C5.57193646 122.96028475 4.08575555 122.95659132 2.59960938 122.94824219 C0.32134354 122.93754154 -1.95613377 122.94813839 -4.234375 122.9609375 C-5.67708508 122.9596159 -7.11979466 122.95705349 -8.5625 122.953125 C-9.87992188 122.95086914 -11.19734375 122.94861328 -12.5546875 122.94628906 C-15.6875 122.6875 -15.6875 122.6875 -17.6875 120.6875 C-17.92800903 118.05526733 -17.92800903 118.05526733 -17.91455078 114.67724609 C-17.91439972 113.41608978 -17.91424866 112.15493347 -17.91409302 110.8555603 C-17.90387898 109.47401778 -17.89344697 108.09247685 -17.8828125 106.7109375 C-17.87908288 105.30132243 -17.87623567 103.89170477 -17.87423706 102.48208618 C-17.86659655 98.76990618 -17.84694461 95.05788239 -17.8248291 91.34576416 C-17.80437959 87.55865594 -17.79523727 83.7715225 -17.78515625 79.984375 C-17.763699 72.55201207 -17.72955816 65.11977792 -17.6875 57.6875 C-18.72390625 57.71070313 -19.7603125 57.73390625 -20.828125 57.7578125 C-22.19790944 57.77657667 -23.5677017 57.79477618 -24.9375 57.8125 C-25.61941406 57.82925781 -26.30132812 57.84601563 -27.00390625 57.86328125 C-30.70854149 57.89924858 -33.62187299 57.90476244 -36.6875 55.6875 C-37.60546875 53.359375 -37.60546875 53.359375 -37.6875 50.6875 C-36.67578125 48.390625 -36.67578125 48.390625 -35 45.9375 C-34.34773437 44.97199219 -33.69546875 44.00648438 -33.0234375 43.01171875 C-32.24659685 41.90237952 -31.4678314 40.79438655 -30.6875 39.6875 C-30.26243164 39.0785791 -29.83736328 38.4696582 -29.39941406 37.84228516 C-26.96142294 34.35156492 -24.50479766 30.87464063 -22.03515625 27.40625 C-19.62848494 24.023199 -17.24385607 20.62567064 -14.87109375 17.21875 C-14.23695557 16.30859131 -13.60281738 15.39843262 -12.94946289 14.46069336 C-11.708945 12.67864262 -10.4698085 10.89562932 -9.23217773 9.11157227 C-8.66829346 8.30260498 -8.10440918 7.4936377 -7.5234375 6.66015625 C-6.77392822 5.58133179 -6.77392822 5.58133179 -6.00927734 4.48071289 C-4.11344848 1.90870273 -3.15344822 0.80669606 0 0 Z M-0.6875 16.6875 C-2.46232415 18.88100061 -4.11726059 21.07869033 -5.75 23.375 C-6.2344458 24.04748779 -6.7188916 24.71997559 -7.21801758 25.4128418 C-8.71574265 27.49888013 -10.20251346 29.59237983 -11.6875 31.6875 C-12.14801758 32.33235352 -12.60853516 32.97720703 -13.08300781 33.64160156 C-18.21921858 39.72444685 -18.21921858 39.72444685 -20.6875 46.6875 C-19.51380859 46.77837891 -19.51380859 46.77837891 -18.31640625 46.87109375 C-16.79853516 46.99677734 -16.79853516 46.99677734 -15.25 47.125 C-13.73599609 47.24681641 -13.73599609 47.24681641 -12.19140625 47.37109375 C-9.6875 47.6875 -9.6875 47.6875 -8.6875 48.6875 C-8.56380675 50.6810143 -8.5095361 52.6788647 -8.48217773 54.67602539 C-8.46223251 55.95727798 -8.44228729 57.23853058 -8.42173767 58.55860901 C-8.40475203 59.96745684 -8.38787327 61.37630595 -8.37109375 62.78515625 C-8.35053085 64.21862905 -8.32953456 65.65209569 -8.30812073 67.08555603 C-8.25283141 70.8650312 -8.20345255 74.6445617 -8.15527344 78.4241333 C-8.10510835 82.27824855 -8.04939629 86.13228309 -7.99414062 89.98632812 C-7.88647518 97.55331909 -7.78556138 105.12037737 -7.6875 112.6875 C-2.4075 112.6875 2.8725 112.6875 8.3125 112.6875 C8.33755615 110.75398682 8.3626123 108.82047363 8.38842773 106.82836914 C8.47218028 100.45405958 8.56045192 94.07982527 8.65183926 87.70562077 C8.70710355 83.8393399 8.760529 79.97305152 8.80981445 76.10668945 C8.8574065 72.37839913 8.90974715 68.65020348 8.96544075 64.92202568 C8.98588778 63.49663067 9.00459691 62.07120968 9.02157402 60.64576912 C9.04556596 58.65579459 9.07620136 56.66590345 9.10717773 54.67602539 C9.12272202 53.54129288 9.1382663 52.40656036 9.15428162 51.23744202 C9.3125 48.6875 9.3125 48.6875 10.3125 47.6875 C12.32844582 47.45322222 14.350974 47.27413876 16.375 47.125 C18.03208984 46.99931641 18.03208984 46.99931641 19.72265625 46.87109375 C21.00462891 46.78021484 21.00462891 46.78021484 22.3125 46.6875 C17.14157611 38.19871368 11.43205242 30.19279988 5.47070312 22.24658203 C4.4930256 20.93050938 3.54738901 19.59072392 2.609375 18.24609375 C2.18140625 17.73175781 1.7534375 17.21742188 1.3125 16.6875 C0.6525 16.6875 -0.0075 16.6875 -0.6875 16.6875 Z " fill="#77909C" transform="translate(261.6875,255.3125)"/>
</svg>
